<svg width="512" height="512" viewBox="0 0 512 512" fill="none" xmlns="http://www.w3.org/2000/svg">
<defs><style>@media(prefers-color-scheme:light){rect{fill:black}path{fill:white}}</style></defs>
<rect width="512" height="512" rx="125" fill="white"/>
<path d="M392.303 222.563L332.606 267.803C329.308 270.302 327.37 274.201 327.37 278.339C327.37 281.845 328.763 285.208 331.242 287.687L407.98 364.424C417.38 373.824 417.38 389.065 407.98 398.465L404.432 402.012C395.032 411.412 379.792 411.412 370.392 402.012L287.465 319.085C278.939 310.559 274.148 298.994 274.148 286.936V116.07C274.148 102.777 284.925 92 298.219 92H303.3C316.594 92 327.37 102.777 327.37 116.07V199.929C327.37 202.139 329.898 203.395 331.66 202.061L360.322 180.35C370.919 172.323 386.017 174.407 394.044 185.005L396.953 188.847C404.978 199.442 402.896 214.536 392.303 222.563Z" fill="black"/>
<path d="M106.568 402.012L103.02 398.465C93.6203 389.065 93.6203 373.824 103.02 364.424L170.313 297.131C178.839 288.605 183.63 277.04 183.63 264.982V116.07C183.63 102.777 194.406 92 207.7 92H212.781C226.075 92 236.852 102.777 236.852 116.07V286.936C236.852 298.994 232.061 310.559 223.535 319.085L140.608 402.012C131.208 411.412 115.968 411.412 106.568 402.012Z" fill="black"/>
</svg>
