<svg width="1000" height="1000" viewBox="0 0 1000 1000" fill="none" xmlns="http://www.w3.org/2000/svg">
<circle cx="500" cy="500" r="500" fill="#0E2A55"/>
<path d="M739.339 443.554L617.369 535.985C613.907 538.609 611.873 542.702 611.873 547.047C611.873 550.728 613.335 554.258 615.938 556.861L768.106 709.029C782.96 723.883 782.96 747.965 768.106 762.818L751.391 779.534C736.537 794.388 712.455 794.388 697.601 779.534L527.956 609.889C517.767 599.7 512.042 585.879 512.042 571.468V231.035C512.042 210.029 529.071 193 550.077 193H573.838C594.844 193 611.873 210.029 611.873 231.035V406.741C611.873 410.333 615.981 412.375 618.844 410.206L679.353 364.373C696.098 351.689 719.956 354.982 732.639 371.728L746.687 390.277C759.367 407.019 756.077 430.869 739.339 443.554Z" fill="#F9F3EC"/>
<path d="M247.61 779.534L230.895 762.818C216.041 747.965 216.041 723.883 230.895 709.029L371.214 568.71C381.404 558.52 387.128 544.7 387.128 530.289V231.035C387.128 210.029 404.157 193 425.163 193H448.924C469.93 193 486.959 210.029 486.959 231.035V571.468C486.959 585.879 481.234 599.7 471.044 609.889L301.4 779.534C286.546 794.388 262.464 794.388 247.61 779.534Z" fill="#F9F3EC"/>
</svg>
