<svg width="512" height="512" viewBox="0 0 512 512" fill="none" xmlns="http://www.w3.org/2000/svg">
<circle cx="256" cy="256" r="256" fill="#0E2A55"/>
<path d="M386.121 222.195L324.557 268.849C321.157 271.426 319.159 275.447 319.159 279.714C319.159 283.33 320.595 286.798 323.152 289.354L402.287 368.49C411.981 378.183 411.981 393.9 402.287 403.594L398.629 407.252C388.935 416.946 373.218 416.946 363.525 407.252L278.006 321.734C269.213 312.941 264.273 301.015 264.273 288.58V112.374C264.273 98.6654 275.387 87.552 289.096 87.552H294.336C308.045 87.552 319.159 98.6654 319.159 112.374V198.854C319.159 201.133 321.765 202.428 323.582 201.052L353.14 178.663C364.068 170.385 379.638 172.534 387.916 183.464L390.916 187.426C399.191 198.352 397.044 213.917 386.121 222.195Z" fill="#F9F3EC"/>
<path d="M113.371 407.252L109.713 403.594C100.019 393.9 100.019 378.183 109.713 368.49L179.109 299.094C187.902 290.301 192.841 278.375 192.841 265.94V112.374C192.841 98.6654 203.955 87.552 217.664 87.552H222.904C236.613 87.552 247.727 98.6654 247.727 112.374V288.58C247.727 301.015 242.787 312.941 233.994 321.734L148.475 407.252C138.782 416.946 123.065 416.946 113.371 407.252Z" fill="#F9F3EC"/>
</svg>
